<svg xmlns="http://www.w3.org/2000/svg" xmlns:xlink="http://www.w3.org/1999/xlink" version="1.1" x="0px" y="0px" viewBox="0 0 100 125" enable-background="new 0 0 100 100" xml:space="preserve"><g><path d="M54.239,68.979H45.69c-0.414,0-0.75-0.336-0.75-0.75v-8.541c0-0.414,0.336-0.75,0.75-0.75h8.549   c0.414,0,0.749,0.336,0.749,0.75v8.541C54.988,68.644,54.653,68.979,54.239,68.979z M46.44,67.479h7.049v-7.041H46.44V67.479z"/></g><g><path d="M60.624,76.168c-0.005,0-0.013,0.001-0.02,0H39.323c-0.414,0-0.75-0.336-0.75-0.75c0-4.377,3.561-7.938,7.938-7.938h6.906   c4.316,0,7.839,3.464,7.936,7.757c0.015,0.059,0.021,0.119,0.021,0.182C61.374,75.832,61.039,76.168,60.624,76.168z M40.116,74.668   h19.695c-0.373-3.198-3.099-5.688-6.395-5.688h-6.906C43.215,68.979,40.489,71.47,40.116,74.668z"/></g><g><path d="M64.3,79.466H35.628c-0.414,0-0.75-0.336-0.75-0.75v-3.298c0-0.414,0.336-0.75,0.75-0.75H64.3   c0.414,0,0.75,0.336,0.75,0.75v3.298C65.05,79.13,64.714,79.466,64.3,79.466z M36.378,77.966H63.55v-1.798H36.378V77.966z"/></g><g><path d="M24.383,41.326c-2.306,0-4.182-1.876-4.182-4.183c0-0.414,0.336-0.75,0.75-0.75c0.414,0,0.75,0.336,0.75,0.75   c0,1.479,1.203,2.683,2.682,2.683c1.479,0,2.682-1.203,2.682-2.683c0-4.436-3.125-5.966-6.744-7.737   c-4.03-1.974-8.599-4.21-8.599-11.069c0-5.41,4.369-8.33,8.479-8.33c2.264,0,4.347,0.86,5.864,2.422   c1.723,1.774,2.634,4.367,2.634,7.499c0,0.414-0.336,0.75-0.75,0.75c-0.414,0-0.75-0.336-0.75-0.75c0-2.733-0.764-4.965-2.21-6.453   c-1.232-1.268-2.933-1.968-4.788-1.968c-3.383,0-6.979,2.394-6.979,6.83c0,5.924,3.768,7.769,7.758,9.722   c3.728,1.826,7.584,3.714,7.584,9.085C28.566,39.45,26.69,41.326,24.383,41.326z"/></g><g><path d="M75.615,41.326c-2.306,0-4.181-1.876-4.181-4.183c0-5.371,3.856-7.259,7.584-9.085c3.989-1.953,7.758-3.798,7.758-9.722   c0-2.556-1.177-4.146-2.165-5.028c-1.28-1.145-3.035-1.802-4.814-1.802c-3.228,0-6.997,2.206-6.997,8.421   c0,0.414-0.336,0.75-0.75,0.75c-0.414,0-0.75-0.336-0.75-0.75c0-6.854,4.268-9.921,8.497-9.921c4.11,0,8.479,2.92,8.479,8.33   c0,6.859-4.568,9.096-8.599,11.069c-3.618,1.771-6.743,3.302-6.743,7.737c0,1.479,1.202,2.683,2.681,2.683   c1.48,0,2.683-1.203,2.683-2.683c0-0.414,0.336-0.75,0.75-0.75c0.414,0,0.75,0.336,0.75,0.75   C79.798,39.45,77.922,41.326,75.615,41.326z"/></g><g><path d="M56.904,60.438H43.048c-0.414,0-0.75-0.336-0.75-0.75V55.66c0-0.414,0.336-0.75,0.75-0.75h0.289   c0.077,0,0.152,0.012,0.225,0.034c4.143,1.305,8.69,1.304,12.828,0.001c0.073-0.023,0.149-0.035,0.226-0.035h0.289   c0.414,0,0.75,0.336,0.75,0.75v4.028C57.654,60.103,57.319,60.438,56.904,60.438z M43.798,58.938h12.356V56.58   c-4.007,1.125-8.345,1.125-12.356,0V58.938z"/></g><g><path d="M49.977,57.428c-2.339,0-4.649-0.354-6.866-1.052C33.58,53.369,27.177,44.63,27.177,34.628V8.305   c0-0.414,0.336-0.75,0.75-0.75h44.1c0.414,0,0.75,0.336,0.75,0.75v26.323c0,10.002-6.404,18.741-15.936,21.747   C54.626,57.073,52.317,57.428,49.977,57.428z M28.677,9.055v25.573c0,9.344,5.982,17.509,14.885,20.317   c4.142,1.303,8.69,1.303,12.828,0c8.904-2.809,14.887-10.974,14.887-20.317V9.055H28.677z"/></g><g><path d="M69.053,92.445H30.875c-0.414,0-0.75-0.336-0.75-0.75V78.716c0-0.414,0.336-0.75,0.75-0.75h38.178   c0.414,0,0.75,0.336,0.75,0.75v12.979C69.803,92.109,69.467,92.445,69.053,92.445z M31.625,90.945h36.678V79.466H31.625V90.945z"/></g><g><path d="M74.503,9.055H25.45c-0.414,0-0.75-0.336-0.75-0.75V6.07c0-0.414,0.336-0.75,0.75-0.75h49.053   c0.414,0,0.75,0.336,0.75,0.75v2.234C75.253,8.719,74.917,9.055,74.503,9.055z M26.2,7.555h47.553V6.82H26.2V7.555z"/></g><g><path d="M70.311,94.68H29.618c-0.414,0-0.75-0.336-0.75-0.75v-2.234c0-0.414,0.336-0.75,0.75-0.75h40.693   c0.414,0,0.75,0.336,0.75,0.75v2.234C71.061,94.344,70.725,94.68,70.311,94.68z M30.368,93.18h39.193v-0.734H30.368V93.18z"/></g><g><path d="M67.11,90.502H32.82c-0.414,0-0.75-0.336-0.75-0.75v-9.091c0-0.414,0.336-0.75,0.75-0.75h34.29   c0.414,0,0.75,0.336,0.75,0.75v9.091C67.86,90.166,67.524,90.502,67.11,90.502z M33.57,89.002h32.79v-7.591H33.57V89.002z"/></g><g><path d="M55.025,36.063c-0.129,0-0.258-0.04-0.367-0.119L50,32.56l-4.658,3.385c-0.219,0.158-0.516,0.158-0.734,0   c-0.22-0.159-0.311-0.441-0.228-0.699l1.78-5.476l-4.658-3.384c-0.22-0.159-0.311-0.441-0.228-0.699   c0.084-0.257,0.324-0.432,0.595-0.432h5.757l1.779-5.477c0.168-0.514,1.021-0.514,1.189,0l1.779,5.477h5.757   c0.271,0,0.511,0.175,0.595,0.432c0.083,0.258-0.008,0.54-0.228,0.699L53.84,29.77l1.78,5.476c0.083,0.258-0.008,0.54-0.227,0.699   C55.283,36.023,55.154,36.063,55.025,36.063z M50,31.162c0.129,0,0.258,0.04,0.367,0.119l3.469,2.521l-1.325-4.077   c-0.083-0.258,0.008-0.54,0.228-0.699l3.469-2.521H51.92c-0.271,0-0.511-0.175-0.595-0.432L50,21.994l-1.325,4.079   c-0.084,0.257-0.324,0.432-0.595,0.432h-4.287l3.469,2.521c0.22,0.159,0.311,0.441,0.228,0.699l-1.325,4.077l3.469-2.521   C49.742,31.202,49.871,31.162,50,31.162z"/></g><text x="0" y="115" fill="#000000" font-size="5px" font-weight="bold" font-family="'Helvetica Neue', Helvetica, Arial-Unicode, Arial, Sans-serif">Created by MONTANA RUCOBO</text><text x="0" y="120" fill="#000000" font-size="5px" font-weight="bold" font-family="'Helvetica Neue', Helvetica, Arial-Unicode, Arial, Sans-serif">from the Noun Project</text></svg>